<svg xmlns="http://www.w3.org/2000/svg" viewBox="0 0 800 400" font-family="sans-serif" font-size="14">
  <defs>
    <marker id="arrow" markerWidth="10" markerHeight="7" refX="9" refY="3.5" orient="auto">
      <polygon points="0 0, 10 3.5, 0 7" fill="#666"/>
    </marker>
  </defs>

  <!-- Title -->
  <text x="400" y="30" text-anchor="middle" font-size="20" font-weight="bold" fill="#333">Lekton Architecture</text>

  <!-- Browser -->
  <rect x="280" y="50" width="240" height="50" rx="8" fill="#e3f2fd" stroke="#1976d2" stroke-width="2"/>
  <text x="400" y="80" text-anchor="middle" fill="#1976d2" font-weight="bold">Client Browser (WASM)</text>

  <!-- Arrow down -->
  <line x1="400" y1="100" x2="400" y2="140" stroke="#666" stroke-width="2" marker-end="url(#arrow)"/>
  <text x="415" y="125" fill="#888" font-size="12">HTTPS</text>

  <!-- Axum Server -->
  <rect x="150" y="140" width="500" height="100" rx="8" fill="#f3e5f5" stroke="#7b1fa2" stroke-width="2"/>
  <text x="400" y="165" text-anchor="middle" fill="#7b1fa2" font-weight="bold">Axum Server</text>

  <!-- Sub-boxes inside server -->
  <rect x="170" y="175" width="130" height="45" rx="4" fill="#fff" stroke="#9c27b0"/>
  <text x="235" y="202" text-anchor="middle" font-size="12">SSR Engine</text>

  <rect x="320" y="175" width="130" height="45" rx="4" fill="#fff" stroke="#9c27b0"/>
  <text x="385" y="202" text-anchor="middle" font-size="12">REST API</text>

  <rect x="470" y="175" width="160" height="45" rx="4" fill="#fff" stroke="#9c27b0"/>
  <text x="550" y="202" text-anchor="middle" font-size="12">Auth Middleware</text>

  <!-- Arrows down to services -->
  <line x1="230" y1="240" x2="170" y2="290" stroke="#666" stroke-width="2" marker-end="url(#arrow)"/>
  <line x1="400" y1="240" x2="400" y2="290" stroke="#666" stroke-width="2" marker-end="url(#arrow)"/>
  <line x1="550" y1="240" x2="620" y2="290" stroke="#666" stroke-width="2" marker-end="url(#arrow)"/>

  <!-- MongoDB -->
  <rect x="80" y="290" width="180" height="60" rx="8" fill="#e8f5e9" stroke="#388e3c" stroke-width="2"/>
  <text x="170" y="320" text-anchor="middle" fill="#388e3c" font-weight="bold">MongoDB</text>
  <text x="170" y="340" text-anchor="middle" font-size="11" fill="#666">metadata</text>

  <!-- S3 -->
  <rect x="310" y="290" width="180" height="60" rx="8" fill="#fff3e0" stroke="#f57c00" stroke-width="2"/>
  <text x="400" y="320" text-anchor="middle" fill="#f57c00" font-weight="bold">S3 Storage</text>
  <text x="400" y="340" text-anchor="middle" font-size="11" fill="#666">content + assets</text>

  <!-- Meilisearch -->
  <rect x="540" y="290" width="180" height="60" rx="8" fill="#fce4ec" stroke="#c62828" stroke-width="2"/>
  <text x="630" y="320" text-anchor="middle" fill="#c62828" font-weight="bold">Meilisearch</text>
  <text x="630" y="340" text-anchor="middle" font-size="11" fill="#666">full-text search</text>
</svg>
